# xmcd
#
# Track frame offsets:
#	150
#	15171
#	29496
#	43256
#	58899
#	73314
#	92824
#	107940
#	122283
#	136513
#	150814
#	165179
#	179552
#	194305
#	208190
#	223058
#	239261
#	253683
#	268119
#	282545
#
# Disc length: 3952 seconds
#
# Revision: 0
# Processed by: cddbd v1.5.2PL0 Copyright (c) Steve Scherf et al.
# Submitted via: EasyCDDAExtractor 16.0.6.1
#
DISCID=230f6e14
DTITLE=Συλλογικός δίσκος - Τα ρεμπέτικα Β 1922-1937 08 Β
DYEAR=2010
DGENRE=Ρεμπέτικη
TTITLE0=Κυριακός Πέτρος-Καμβύσης Γιώργος - Έφοδος στον τεκέ [κωμικόν, Γ. Καμβύ
TTITLE0=σης, Αθήνα 11.1933]
TTITLE1=Μπάτης Γιώργος - Γυφτοπούλα [καρσιλαμάς, Γ. Μπάτης, Αθήνα 11.1934]
TTITLE2=Εσκενάζυ Ρόζα - Καμωματού [καρσιλαμάς, Ι. Δραγάτσης, Αθήνα 1933]
TTITLE3=Βαμβακάρης Μάρκος - Στα σίδερα με βάλανε [ζεϊμπ., Μ. Βαμβακάρης-Δ. Καρ
TTITLE3=ανόπουλος, Αθ. 1934]
TTITLE4=Αμπατζή Ρίτα - Τσερκές [ζεϊμπ., Στ. Παντελίδης, Αθήνα 1933 ή 34]
TTITLE5=Κυριακός Πέτρος-Καμβύσης Γιώργος - Σελέμης [κωμικόν, Γ. Καμβύσης, Αθήν
TTITLE5=α 1931]
TTITLE6=Μένδρη Κάκια - Μαριανθάκι [μπάλλος, Παν. Τούντας, Αθήνα 1934]
TTITLE7=Ασίκης Γρηγόρης - Το Κατινάκι [συρτός, Γρ. Ασίκης, Αθήνα 1932 ή 33]
TTITLE8=Εσκενάζυ Ρόζα - Το γκαρσόν [ρεμπ., καρσιλ., Γρ. Ασίκης, Αθήνα 12.1933]
TTITLE9=Περπινιάδης Στελλάκης - Ο ΝικοκλάκιαςΒ. Παπάζογλου, Αθήνα 1933 ή 34]
TTITLE10=Αμπατζή Ρίτα-Ατραΐδης Δημήτρης - Δερβίσης και Ρίτα [ζεϊμπ., Ιάκ. Μοντ
TTITLE10=ανάρης, Αθήνα 20.11.1934]
TTITLE11=Ρούκουνας Κώστας ή Σαμιωτάκης - Η κρίσις [συρτός, Κ. Ρούκουνας, Αθήνα
TTITLE11=1933]
TTITLE12=Κυριακός Πέτρος - Η διαθήκη του μάγκα [κωμικόν, Γ. Καμβύσης, Αθήνα 19
TTITLE12=31]
TTITLE13=Εσκενάζυ Ρόζα - Κόρη στα μεταξωτά [τσιφτετέλι, Κ. Μισαηλίδης, Αθήνα 1
TTITLE13=934]
TTITLE14=Βαμβακάρης Μάρκος - Αραμπατζής χασάπ., Μ. Βαμβακάρης, Αθήνα 1934 ή 35
TTITLE14=]
TTITLE15=Αμπατζή Ρίτα - Το παιχνίδι του Αμερικάνου [Κ. Σκαρβέλης, Αθήνα 1936]
TTITLE16=Ρούκουνας Κώστας ή Σαμιωτάκης - Βρε μάγισσα κακιά [Παν. Τούντας, Αθήν
TTITLE16=α 1931]
TTITLE17=Εσκενάζυ Ρόζα - Αγιάτρευτος καϋμός [Κ. Σκαρβέλης, Αθήνα 17.2.1934]
TTITLE18=Κασιμάτης Ζαχαρίας - Καπριτσιόζα [ζεϊμπ., απτάλ., Ι. Δραγάτσης, Αθήνα
TTITLE18=1933]
TTITLE19=Μεσολογγίτης Βασίλης - Κοχλαράκιας [Σ. Περιστέρης-Βασ. Μεσολογγίτης, 
TTITLE19=Αθήνα 1935]
EXTD=
EXTT0=
EXTT1=
EXTT2=
EXTT3=
EXTT4=
EXTT5=
EXTT6=
EXTT7=
EXTT8=
EXTT9=
EXTT10=
EXTT11=
EXTT12=
EXTT13=
EXTT14=
EXTT15=
EXTT16=
EXTT17=
EXTT18=
EXTT19=
PLAYORDER=
